<svg xmlns="http://www.w3.org/2000/svg" xml:space="preserve" style="enable-background:new 0 0 500 500" viewBox="0 0 500 500"><path d="M93.184 309.071c.111-2.021.973-3.959 2.23-5.546 1.231-1.555 2.884-2.821 4.794-3.357a7.847 7.847 0 0 1 6.09.824 7.806 7.806 0 0 1 2.625 2.636 7.784 7.784 0 0 1 2.146-2.618 7.847 7.847 0 0 1 5.95-1.538c1.959.307 3.75 1.369 5.156 2.767 1.435 1.427 2.52 3.25 2.869 5.244.437 2.498.113 5.279-1.062 7.526-1.241 2.372-3.357 4.354-5.565 5.869-3.712 2.547-8.609 5.751-8.609 5.751s-4.474-2.95-8.461-5.041c-2.371-1.244-4.706-2.962-6.219-5.171-1.433-2.091-2.082-4.814-1.944-7.346zM371.886 198.62c.111-2.021.973-3.959 2.23-5.546 1.231-1.555 2.884-2.821 4.794-3.357a7.843 7.843 0 0 1 6.09.825 7.806 7.806 0 0 1 2.625 2.636 7.784 7.784 0 0 1 2.146-2.618 7.848 7.848 0 0 1 5.951-1.538c1.959.307 3.75 1.369 5.156 2.767 1.435 1.427 2.52 3.25 2.869 5.244.437 2.498.113 5.279-1.062 7.526-1.241 2.372-3.357 4.354-5.565 5.869-3.712 2.547-8.609 5.751-8.609 5.751s-4.474-2.95-8.461-5.041c-2.371-1.244-4.706-2.962-6.219-5.171-1.434-2.091-2.083-4.815-1.945-7.347z" style="fill:#ebebeb"/><path d="M120.25 284.24c.071-1.298.625-2.543 1.432-3.562.791-.998 1.852-1.812 3.079-2.156a5.035 5.035 0 0 1 3.912.53 5.01 5.01 0 0 1 1.686 1.693 4.988 4.988 0 0 1 1.378-1.681 5.037 5.037 0 0 1 3.822-.988c1.258.197 2.409.879 3.312 1.777.922.917 1.618 2.087 1.842 3.368.28 1.604.073 3.39-.682 4.833-.797 1.524-2.156 2.796-3.574 3.769-2.384 1.636-5.529 3.694-5.529 3.694s-2.874-1.895-5.434-3.238c-1.523-.799-3.022-1.902-3.994-3.321-.922-1.343-1.339-3.092-1.25-4.718zM354.783 223.105c.071-1.298.625-2.543 1.432-3.562.791-.998 1.852-1.812 3.079-2.156a5.04 5.04 0 0 1 3.912.529 5.01 5.01 0 0 1 1.686 1.693 4.998 4.998 0 0 1 1.378-1.681 5.037 5.037 0 0 1 3.822-.988c1.258.197 2.409.879 3.312 1.777.922.917 1.619 2.087 1.842 3.368.28 1.604.073 3.39-.682 4.833-.797 1.524-2.156 2.796-3.574 3.769-2.384 1.636-5.529 3.694-5.529 3.694s-2.874-1.895-5.434-3.238c-1.523-.799-3.022-1.902-3.994-3.321-.923-1.342-1.34-3.091-1.25-4.717z" style="fill:#f5f5f5"/><path d="M405.327 273.65c.071-1.298.625-2.543 1.432-3.562.791-.998 1.852-1.812 3.079-2.156a5.035 5.035 0 0 1 3.912.53 5.01 5.01 0 0 1 1.686 1.693 4.998 4.998 0 0 1 1.378-1.681 5.037 5.037 0 0 1 3.822-.988c1.258.197 2.409.879 3.312 1.777.922.917 1.618 2.087 1.842 3.368.28 1.604.073 3.391-.682 4.833-.797 1.524-2.156 2.796-3.574 3.769-2.384 1.636-5.529 3.694-5.529 3.694s-2.873-1.895-5.434-3.238c-1.523-.799-3.022-1.902-3.994-3.321-.922-1.343-1.339-3.092-1.25-4.718z" style="fill:#ebebeb"/><path d="M126.902 325.685c.047-.856.412-1.677.945-2.349.522-.659 1.222-1.195 2.031-1.422a3.322 3.322 0 0 1 2.58.349 3.31 3.31 0 0 1 1.112 1.117c.218-.43.528-.813.909-1.109a3.321 3.321 0 0 1 2.521-.651c.83.13 1.589.58 2.184 1.172.608.605 1.068 1.377 1.215 2.221.185 1.058.048 2.236-.45 3.188-.526 1.005-1.422 1.844-2.357 2.486-1.573 1.079-3.647 2.436-3.647 2.436s-1.895-1.25-3.584-2.136c-1.005-.527-1.994-1.255-2.635-2.191-.608-.885-.883-2.039-.824-3.111z" style="fill:#f5f5f5"/><path d="M72.785 83.719s-4.601 3.975 5.403 13.211c10.005 9.236 16.105 13.385 16.105 13.385s2.005 2.261-.068 3.492c-2.072 1.231-7.257 2.257-7.243 5.344.014 3.201 3.046 5.107 8.064 5.909 5.018.802 15.948 2.961 16.935 3.16.97.195 2.215 1.132.938 2.197-1.277 1.065-11.866 6.279-9.091 11.155 2.775 4.876 17.121 4.813 18.689 4.835 1.569.023 2.112.484 2.278 1.279.166.795-3.558 2.212-6.509 3.818-2.951 1.606-6.091 3.986-4.254 6.665 1.837 2.679 11.619 6.122 30.468 1.192l8.585-2.856 1.972-8.871c3.063-19.241-1.321-28.64-4.167-30.206-2.846-1.566-4.907 1.792-6.217 4.886-1.31 3.094-2.356 6.939-3.163 6.851-.807-.087-1.319-.583-1.495-2.142-.176-1.559-1.517-15.842-6.641-18.127-5.124-2.284-9.277 8.764-10.212 10.139-.935 1.375-1.989.227-2.278-.719-.295-.963-3.513-11.629-4.802-16.545-1.289-4.916-3.482-7.747-6.669-7.447-3.073.288-3.587 5.549-4.609 7.731-1.023 2.183-3.469.409-3.469.409s-4.726-5.666-14.897-14.719c-10.171-9.053-13.739-3.942-13.739-3.942" style="fill:#ebebeb"/><path d="M154.262 158.339c-7.443-6.678-20.473-18.769-31.714-29.092-11.237-10.319-21.42-19.653-28.828-26.368l-8.782-7.943-2.387-2.162-.616-.567c-.138-.129-.203-.201-.203-.201s.078.057.223.179l.634.547 2.422 2.122c2.101 1.845 5.122 4.537 8.843 7.878 7.443 6.678 17.648 15.989 28.885 26.308 11.241 10.323 24.249 22.437 31.658 29.152" style="fill:#e0e0e0"/><path d="M94.294 118.008c0-.019.232-.037.653-.053.42-.018 1.029-.026 1.78-.029 1.503-.003 3.58.046 5.87.141l5.863.266 1.776.069c.42.014.652.032.652.051 0 .019-.232.039-.652.059-.421.017-1.029.025-1.781.02-1.504-.012-3.579-.088-5.869-.184l-5.862-.224-1.777-.06c-.421-.018-.653-.037-.653-.056zM111.267 117.697c-.078 0-.165-4.285-.196-9.571-.031-5.287.008-9.573.085-9.573.077 0 .165 4.284.196 9.572.031 5.285-.007 9.571-.085 9.572zM127.812 134.325c-.018-.006.036-.238.151-.651l.498-1.746c.418-1.475.986-3.513 1.531-5.786.55-2.272.976-4.345 1.273-5.849l.353-1.781c.086-.42.142-.651.161-.648.019.003-.001.24-.053.666-.053.426-.14 1.041-.266 1.798a81.523 81.523 0 0 1-1.195 5.88 82.604 82.604 0 0 1-1.614 5.777c-.237.73-.435 1.319-.584 1.722-.147.404-.237.624-.255.618zM112.521 137.985c-.005-.019.203-.09.583-.204l1.616-.455c1.368-.372 3.261-.868 5.357-1.398a330.13 330.13 0 0 1 5.379-1.318l1.638-.368c.388-.081.605-.117.61-.098.005.019-.203.09-.583.204l-1.616.455c-1.368.372-3.262.868-5.358 1.398-2.096.53-3.998.995-5.378 1.318l-1.638.368c-.388.081-.605.117-.61.098zM125.262 154.52c-.005-.019.262-.108.749-.254l2.069-.591c1.75-.487 4.172-1.141 6.852-1.846a535.884 535.884 0 0 1 6.874-1.767l2.092-.504c.495-.113.771-.167.776-.148.005.019-.262.108-.749.254l-2.069.591c-1.75.487-4.173 1.141-6.853 1.846-2.68.705-5.11 1.329-6.873 1.766l-2.091.504c-.496.115-.772.168-.777.149zM144.176 149.403c-.019-.005.043-.3.171-.829l.551-2.237c.463-1.889 1.093-4.5 1.706-7.402a228.524 228.524 0 0 0 1.45-7.457l.406-2.267c.098-.535.161-.83.181-.827.019.003-.008.303-.073.844-.065.54-.171 1.321-.318 2.283a132.012 132.012 0 0 1-1.371 7.483 133.63 133.63 0 0 1-1.789 7.393 76.295 76.295 0 0 1-.638 2.215c-.16.521-.258.806-.276.801z" style="fill:#e0e0e0"/><path d="M355.284 139.375c-13.332-11.626-14.588-30.675-12.206-47.42.397-2.795.408-5.786 2.008-8.104 1.6-2.317 4.895-3.664 7.279-2.211 1.978 1.205 2.624 3.726 3.574 5.856a16.501 16.501 0 0 0 5.902 6.993c1.686 1.119 3.835 1.924 5.704 1.142 2.564-1.074 3.209-4.387 3.493-7.179l1.584-15.611c.283-2.792.582-5.642 1.735-8.196 1.153-2.555 3.336-4.808 6.07-5.265 2.735-.457 5.852 1.427 6.118 4.218.111 1.162-.248 2.317-.295 3.483-.047 1.167.354 2.506 1.419 2.948 1.078.447 2.28-.224 3.202-.95 3.184-2.507 5.529-5.925 7.744-9.338 2.215-3.412 4.386-6.916 7.33-9.707 2.944-2.791 6.821-4.836 10.841-4.632 4.021.205 8.012 3.13 8.599 7.161.589 4.043-2.136 7.786-4.977 10.701a62.653 62.653 0 0 1-14.299 10.963c-.947.53-1.973 1.101-2.42 2.099-.807 1.795.757 3.832 2.527 4.641 2.005.917 4.285.944 6.433 1.435 2.148.491 4.401 1.704 5.003 3.849.836 2.975-1.872 5.707-4.43 7.412a53.675 53.675 0 0 1-16.772 7.413c-2.133.53-4.364.956-6.175 2.219-1.811 1.264-3.08 3.664-2.292 5.737.789 2.076 3.287 2.981 5.48 2.813 2.192-.167 4.243-1.127 6.375-1.679 3.99-1.034 8.913-.236 11.012 3.342 1.379 2.352 1.195 5.401.098 7.909-1.096 2.509-2.993 4.567-4.973 6.44-6.922 6.548-15.415 11.504-24.643 13.63-9.225 2.127-17.556 2.074-26.048-2.112" style="fill:#f5f5f5"/><path d="M360.758 129.307c3.388-8.215 7.848-16.911 12.825-25.847l3.71-6.603c1.223-2.164 2.435-4.311 3.75-6.337 2.614-4.064 5.437-7.773 8.226-11.209 2.789-3.439 5.561-6.6 8.174-9.537 2.621-2.933 5.115-5.62 7.493-7.973 4.743-4.724 9.011-8.075 12.035-10.255a92.566 92.566 0 0 1 3.53-2.446l.937-.607c.213-.134.324-.199.329-.192.005.008-.096.088-.299.236l-.908.649c-.801.567-1.981 1.404-3.471 2.523a105.372 105.372 0 0 0-11.897 10.354c-2.355 2.362-4.828 5.058-7.43 7.999-2.598 2.948-5.354 6.115-8.126 9.553-2.772 3.436-5.576 7.137-8.169 11.183-1.305 2.017-2.505 4.145-3.729 6.316l-3.706 6.6c-4.973 8.929-9.435 17.598-12.837 25.778" style="fill:#e0e0e0"/><path d="M381.192 90.517c-.035.002-.084-.432-.144-1.22a75.182 75.182 0 0 1-.164-3.339c-.095-2.82-.094-6.72-.076-11.019.018-4.302-.035-8.19-.173-11.001a157.646 157.646 0 0 0-.183-3.329c-.05-.786-.061-1.224-.025-1.228.035-.004.114.425.225 1.207.116.781.236 1.918.347 3.325.232 2.815.344 6.719.326 11.025l-.075 11.013v3.338c-.004.788-.022 1.226-.058 1.228z" style="fill:#e0e0e0"/><path d="M417.787 87.678c-.003.036-.52.04-1.449.017-.929-.017-2.274-.049-3.936-.036-3.324 0-7.915.162-12.973.562-5.059.409-9.621.974-12.908 1.478-1.647.24-2.973.471-3.892.624-.918.157-1.429.228-1.437.193-.007-.036.491-.173 1.398-.392a67.86 67.86 0 0 1 3.872-.789c3.282-.599 7.853-1.223 12.927-1.634 5.072-.4 9.684-.504 13.016-.41 1.667.034 3.014.122 3.942.203.931.084 1.442.148 1.44.184zM361.27 128.695c-.017.006-.085-.154-.199-.464l-.474-1.364c-.406-1.186-.949-2.918-1.591-5.066-1.288-4.296-2.88-10.286-4.547-16.92-1.669-6.636-3.203-12.633-4.399-16.95l-1.432-5.109-.382-1.393c-.082-.319-.117-.49-.1-.497.017-.005.085.155.199.465l.474 1.363c.406 1.186.949 2.918 1.591 5.066 1.288 4.296 2.88 10.286 4.548 16.923 1.668 6.634 3.203 12.63 4.398 16.948l1.432 5.108.382 1.393c.083.32.117.491.1.497z" style="fill:#e0e0e0"/><path d="M410.594 118.469c.003.018-.168.067-.494.144l-1.434.315-5.283 1.104c-4.461.934-10.607 2.293-17.396 3.805-6.791 1.513-12.956 2.817-17.437 3.658-2.24.421-4.057.744-5.316.941-.582.087-1.062.159-1.452.219-.333.044-.51.058-.512.041-.003-.018.168-.067.494-.145l1.434-.314 5.282-1.104c4.461-.933 10.607-2.293 17.398-3.805 6.789-1.512 12.953-2.816 17.434-3.657 2.241-.422 4.057-.744 5.317-.941l1.452-.219c.334-.046.51-.06.513-.042z" style="fill:#e0e0e0"/><path d="M473.367 465.825c0 .144-100.013.26-223.356.26-123.386 0-223.378-.117-223.378-.26s99.992-.26 223.378-.26c123.343-.001 223.356.116 223.356.26z" style="fill:#263238"/><path d="m315.698 223.457 1.661-27.778c.067-1.115.238-2.41 1.201-2.977.868-.511 1.97-.174 2.904.201 16.416 6.602 28.462 24.923 29.903 42.558" style="fill:#e8505b"/><g style="opacity:.3"><path d="M321.275 202.276c7.712 4.961 12.846 13.72 13.406 22.873.068 1.112.039 2.331-.666 3.194-.581.711-1.531 1.039-2.449 1.071-.918.031-1.823-.197-2.713-.424-2.219-.566-4.546-1.191-6.188-2.787-1.55-1.507-2.272-3.706-2.405-5.864s.266-4.309.663-6.434l2.796 4.781-2.989-15.487c-.054-.28-.099-.599.076-.823.176-.224.648-.147.623.136" style="fill:#fff"/></g><path d="M220.51 243.184c-8.543-10.054-13.577-23.033-14.047-36.218l9.148 4.312-2.295-2.784c13.214 1.009 25.933 7.433 34.588 17.468" style="fill:#e8505b"/><g style="opacity:.3"><path d="M225.577 239.135c-7.199-5.161-12.082-13.435-13.122-22.231-.072-.607-.022-1.391.554-1.596.402-.143.828.1 1.185.333l16.511 10.787a7.404 7.404 0 0 1-1.302-3.472l6.972 5.137c.49.361 1.019.785 1.106 1.388.094.652-.371 1.246-.855 1.693-2.3 2.123-5.769 2.891-8.75 1.935l3.026 2.61a7.881 7.881 0 0 1-6.106 1.049c-.221.98.235 2.077 1.085 2.611" style="fill:#fff"/></g><path d="M407.009 330.448s12.802 13.235 18.62 12.132c0 0-20.214-21.507-28.714-41.36-3.195-7.463-7.956-16.913-14.467-26.986 3.834-6.604 7.238-14.074 8.806-21.626 0 0-6.397 7.671-14.589 13.197-.445-.613-.891-1.227-1.349-1.841 3.857-3.681 7.545-8.84 8.559-15.602l-20.217-.871c.499-.69 1.066-1.613 1.714-2.847 0 0-12.759-11.77-33.035-20.917-23.245-13.229-74.984-17.597-100.198 3.918-22.564 13.158-28.621 29.984-46.4 34.168l-10.539-1.158s-4.099 21.994 9.368 31.834l-9.955-2.315s1.837 8.753 11.674 18.412l-6.132-.749s2.656 13.787 11.157 17.096c0 0-13.282 1.654-17.001-3.309 0 0-4.423 20.593 15.695 28.371 0 0-60.262 7.055-43.322 80.821 3.957 17.231 27.748 29.639 55.099 35.621l196.965-.769c12.007-3.914 26.326-43.675 26.857-59.668.531-15.993-7.438-46.875-7.438-46.875l7.463 9.926-18.621-38.603z" style="fill:#e8505b"/><path d="M181.843 361.189c-11.314-.68-22.422 8.114-24.357 19.283a56.39 56.39 0 0 1 24.533-8.964c-6.998 6.199-9.457 17.001-5.83 25.618 2.867-7.784 9.072-14.274 16.72-17.488-5.272 6.218-6.918 15.306-4.161 22.978" style="fill:#e8505b"/><path d="M188.748 402.617c-.009.003-.063-.133-.16-.404-.091-.272-.248-.671-.404-1.208a22.85 22.85 0 0 1-.822-4.814c-.118-2.113-.023-4.747.765-7.659a23.447 23.447 0 0 1 4.629-9.022l.228.311a30.508 30.508 0 0 0-9.472 6.416c-2.931 2.913-5.485 6.639-7.091 10.975l-.219.592-.245-.582c-2.384-5.659-2.288-12.849.729-19.04 1.295-2.626 3.053-4.98 5.161-6.869l.201.45c-9.502 1.099-17.949 4.608-24.439 8.894l-.438.289.093-.514c.459-2.528 1.366-4.843 2.504-6.873a22.908 22.908 0 0 1 3.987-5.249c2.91-2.978 6.18-4.728 8.94-5.779 2.792-1.033 5.136-1.322 6.717-1.401.792-.044 1.402.017 1.81.018l.463.021a.541.541 0 0 1 .156.019.553.553 0 0 1-.158.016l-.463.013c-.408.022-1.015-.017-1.8.049a23.314 23.314 0 0 0-6.632 1.508c-2.716 1.075-5.927 2.835-8.773 5.793a22.67 22.67 0 0 0-3.889 5.191c-1.106 2.001-1.983 4.275-2.421 6.75l-.344-.225c6.523-4.351 15.037-7.916 24.627-9.034l.807-.094-.606.544c-2.052 1.844-3.769 4.142-5.035 6.71-2.951 6.055-3.05 13.094-.737 18.618l-.464.01c1.644-4.409 4.251-8.185 7.238-11.128a30.72 30.72 0 0 1 9.64-6.456l.758-.319-.53.63a23.23 23.23 0 0 0-4.626 8.848c-.807 2.866-.933 5.469-.85 7.564a24.57 24.57 0 0 0 .711 4.796c.137.539.275.943.348 1.22.08.278.116.421.106.425z" style="fill:#263238"/><path d="M388.326 392.223c6.046-1.282 12.525-.418 18.024 2.404 5.499 2.822 9.978 7.582 12.462 13.242" style="fill:#e8505b"/><path d="M418.812 407.869c-.097.049-.869-1.902-2.826-4.607-1.93-2.695-5.225-6.079-9.754-8.403-4.53-2.325-9.201-3.029-12.516-3.026-3.339-.013-5.373.497-5.39.39-.007-.029.493-.178 1.418-.358.924-.182 2.281-.36 3.97-.4 3.357-.099 8.133.557 12.756 2.931 4.622 2.372 7.94 5.869 9.816 8.654.952 1.395 1.599 2.602 1.99 3.459.393.856.563 1.348.536 1.36z" style="fill:#263238"/><path d="M318.869 408.837c-7.262 1.144-16.501 6.648-19.879 13.178-.72 1.391-.056 1.582.004 3.147.061 1.565.904 3.181 2.357 3.767s3.421-.246 3.69-1.789c-.883 5.265.306 10.849 3.258 15.297a11.512 11.512 0 0 0 4.718-5.008c-.426 7.789 2.543 15.704 7.985 21.292l-3.539-13.813c-1.276-4.981-2.501-9.249-2.162-14.379.362-5.48 3.623-10.099 6.148-14.643-3.476 1.509-7.504 8.357-10.939 12.527-.502-7.288 2.571-14.369 8.086-19.364" style="opacity:.3"/><path d="M317.507 445.061c-.014.006-.108-.197-.275-.594-.153-.401-.441-.976-.685-1.765-.536-1.561-1.139-3.918-1.346-6.941a29.534 29.534 0 0 1 1.247-10.655c1.164-3.942 3.391-8.108 6.815-11.666l.35.361c-2.714 2.529-5.647 5.224-8.313 8.326-1.716 1.987-3.225 4.08-4.447 6.244l-.39.691-.089-.786c-.491-4.353.46-8.556 2.151-11.977 1.692-3.444 4.133-6.116 6.649-7.932l.181.34a16.323 16.323 0 0 0-5.365 3.294 16.905 16.905 0 0 0-3.038 3.701 17.696 17.696 0 0 0-1.344 2.732c-.24.656-.36 1.006-.381.999-.009-.003.009-.093.054-.268.048-.174.111-.435.221-.77.226-.665.598-1.642 1.264-2.805a16.667 16.667 0 0 1 3.014-3.818 16.46 16.46 0 0 1 5.441-3.432l1.336-.512-1.155.852c-2.448 1.806-4.818 4.441-6.456 7.823-1.638 3.36-2.549 7.472-2.063 11.711l-.479-.095c1.238-2.203 2.767-4.326 4.5-6.333 2.694-3.134 5.645-5.835 8.366-8.356l.35.361c-3.368 3.48-5.583 7.564-6.76 11.441a29.684 29.684 0 0 0-1.342 10.509c.161 2.992.709 5.339 1.191 6.907.217.793.478 1.374.604 1.785.141.407.207.622.194.628z" style="fill:#263238"/><path d="M198.862 443.964a28.711 28.711 0 0 0 14.808 8.736c.652.15 1.444.237 1.891-.261.576-.641.103-1.645-.38-2.359l-6.349-9.377a33.737 33.737 0 0 0 15.572 6.838c.942.15 2.119.154 2.598-.671.387-.666.084-1.505-.233-2.207a84.064 84.064 0 0 0-3.178-6.312" style="fill:#e8505b"/><path d="M223.59 438.35c.015-.008.121.165.31.503l.805 1.493 1.249 2.386.776 1.497c.273.522.572 1.114.631 1.836.023.359-.071.763-.318 1.077-.249.317-.627.512-1.007.595-.767.175-1.559.032-2.321-.103a32.56 32.56 0 0 1-4.875-1.232 33.752 33.752 0 0 1-10.169-5.494l.377-.349 1.105 1.63 3.543 5.242 1.681 2.495c.281.422.537.874.651 1.401.143.512-.046 1.211-.565 1.504-.511.297-1.056.24-1.519.165-.474-.089-.895-.22-1.336-.326a28.71 28.71 0 0 1-6.698-2.815 27.513 27.513 0 0 1-5.386-4.058 20.464 20.464 0 0 1-1.263-1.329c-.273-.318-.41-.49-.397-.502.013-.012.176.137.473.43.293.297.739.722 1.325 1.253a29.703 29.703 0 0 0 5.43 3.886 29.125 29.125 0 0 0 6.636 2.693c.831.178 1.808.573 2.484.194.317-.196.441-.58.338-.997-.091-.416-.319-.832-.584-1.222l-1.692-2.487-3.552-5.236-1.104-1.631-.944-1.394 1.32 1.045a33.95 33.95 0 0 0 9.997 5.456c1.655.576 3.272.979 4.798 1.264.764.148 1.498.279 2.16.137.67-.111 1.104-.663 1.054-1.276-.036-.608-.299-1.188-.565-1.718l-.738-1.508-1.169-2.417-.72-1.535c-.16-.355-.236-.544-.221-.553z" style="fill:#263238"/><path d="M223.528 381.785a22.598 22.598 0 0 0 9.324 8.685 10.057 10.057 0 0 0-2.443-5.542 42.597 42.597 0 0 0 14.694 9.139c-4.636 2.065-10.256 1.76-14.642-.793-4.386-2.553-7.426-7.289-7.921-12.34M196.773 316.612c7.939 15.273 33.619 22.812 53.756 23.133 6.223.099 14.975 4.694 21.162 4.099 13.833-1.33 25.055-8.79 38.921-9.972 8.624-.736 17.312-.962 25.839-2.448s8.143-2.466 14.916-7.855 14.116-10.733 14.004-19.388c-12.736 15.597-25.329 20.429-44.944 24.978-19.615 4.55-39.994 4.47-60.109 3.539-22.13-1.023-45.356-3.442-63.545-16.086" style="opacity:.3"/><path d="M265.093 199.49c.086-.004.165 1.126.467 2.918a34.064 34.064 0 0 0 1.903 6.815 34.096 34.096 0 0 0 3.309 6.256c1.014 1.509 1.734 2.382 1.669 2.438-.027.024-.234-.172-.586-.546-.356-.371-.833-.944-1.384-1.68-1.105-1.469-2.445-3.659-3.492-6.275-1.04-2.618-1.575-5.128-1.784-6.955-.106-.914-.155-1.657-.152-2.171-.002-.515.014-.799.05-.8zM271.623 196.959c.084.034-.314 1.021-.699 2.675a21.937 21.937 0 0 0-.492 6.575c.211 2.58.881 4.847 1.527 6.415.643 1.572 1.192 2.483 1.114 2.53-.03.019-.193-.192-.462-.593-.276-.397-.619-1.008-.99-1.789-.746-1.559-1.493-3.874-1.709-6.521-.206-2.647.165-5.051.655-6.708.242-.83.484-1.488.694-1.924.202-.44.329-.674.362-.66zM149.23 363.199c-.012-.014.125-.148.397-.392.277-.238.667-.612 1.217-1.035 1.075-.878 2.711-2.055 4.853-3.316 4.264-2.553 10.725-5.147 18.177-6.575 7.454-1.434 14.33-1.712 19.274-1.858a226.13 226.13 0 0 1 5.865-.082l1.595.014c.365.009.556.022.557.04 0 .018-.191.04-.554.064l-1.593.084-5.856.247c-4.936.239-11.784.577-19.188 2.001-7.401 1.419-13.816 3.933-18.094 6.383-2.148 1.21-3.805 2.334-4.913 3.158-1.11.822-1.708 1.301-1.737 1.267zM292.582 201.343c-.027.09-1.716-.487-4.492-1.16-1.388-.317-3.068-.629-4.937-.593-1.854.027-3.919.494-5.734 1.625-.898.57-1.672 1.284-2.252 2.094a7.207 7.207 0 0 0-1.127 2.623c-.373 1.812-.107 3.524.212 4.898.693 2.762 1.426 4.401 1.326 4.436-.031.012-.234-.384-.55-1.124-.309-.742-.758-1.822-1.133-3.223-.368-1.388-.692-3.151-.325-5.084a7.555 7.555 0 0 1 1.18-2.82c.616-.875 1.442-1.639 2.392-2.241 1.918-1.195 4.08-1.662 6.006-1.665 1.933-.01 3.64.349 5.032.715a38.32 38.32 0 0 1 3.25 1.033c.753.279 1.163.452 1.152.486zM442.611 451.945c-1.082-7.186-4.6-14.253-10.607-18.343s-14.66-4.567-20.381-.085l-23.741 32.108 50.535.207c2.823-2.61 4.767-10.087 4.194-13.887z" style="fill:#e8505b"/><path d="M408.974 465.16c4.267-1.783 7.419-5.609 9.353-9.811 1.934-4.201 2.795-8.802 3.639-13.349.701-3.775 1.368-7.845-.272-11.316-.784-.123-1.566.348-2.043.983-.477.635-.712 1.413-.952 2.171-3.907 12.343-9.941 22.948-19.784 31.358" style="opacity:.3"/><g style="opacity:.3"><path d="M258.881 214.408c4.986 14.407 5.625 29.951 5.086 45.187-.268 7.582-.833 15.247-3.203 22.455-2.37 7.207-6.726 13.996-13.18 17.983-6.106 3.772-13.649 4.754-20.764 3.816-7.116-.938-13.877-3.672-20.291-6.893-7.316-3.675-14.373-8.078-20.053-13.973-5.68-5.896-10.338-14.194-11.277-22.327l10.539 1.158s8.115-.866 20.726-13.064c13.772-13.321 16.283-14.954 26.606-21.889 12.724-8.549 25.811-12.453 25.811-12.453z" style="fill:#fff"/></g><path d="M302.444 303.233c3.909-2.316 9.37-1.573 12.518 1.703 3.137-4.232 8.898-6.327 14.021-5.101-3.053 1.385-6.151 2.827-8.621 5.095-2.469 2.268-4.254 5.53-3.937 8.868a47.627 47.627 0 0 0-10.551-8.512c-1.62-.961-3.756-1.806-5.273-.69" style="opacity:.3"/><path d="M336.877 415.887c-5.749 4.134-10.094 10.186-12.172 16.955s-1.877 14.217.563 20.864" style="fill:#e8505b"/><path d="M325.268 453.706c-.017.006-.082-.128-.19-.391-.102-.264-.273-.648-.436-1.162-.355-1.018-.781-2.526-1.117-4.429-.689-3.783-.813-9.281.93-14.958 1.742-5.68 4.93-10.161 7.622-12.906 1.346-1.387 2.545-2.396 3.41-3.039.423-.334.78-.556 1.013-.717.237-.157.366-.231.376-.217.025.034-.443.403-1.262 1.092a35.92 35.92 0 0 0-3.268 3.133c-2.595 2.781-5.679 7.222-7.393 12.807-1.714 5.583-1.653 10.988-1.065 14.746.286 1.889.654 3.398.947 4.428.293 1.031.473 1.598.433 1.613z" style="fill:#263238"/><path d="M356.773 381.273c4.085-3.143 9.365-6.445 14.022-4.237 2.637 1.25 4.265 4.069 4.771 6.943.506 2.874.047 5.825-.531 8.685-3.329 16.465-10.695 32.098-21.271 45.148-3.853 4.755-9.331 9.58-15.309 8.268-5.586-1.226-8.752-7.605-8.428-13.316.324-5.71 3.217-10.906 5.885-15.965 6.337-12.015 12.499-25.16 20.861-35.526" style="fill:#e8505b"/><path d="M356.773 381.273s-.081.133-.261.377l-.805 1.073a100.05 100.05 0 0 0-2.988 4.201c-2.522 3.699-5.852 9.265-9.563 16.361l-6.019 11.639c-2.117 4.197-4.787 8.536-6.174 13.622-.664 2.531-.974 5.259-.41 7.938.54 2.658 1.794 5.303 3.886 7.2 1.041.941 2.297 1.663 3.672 2.032a9.298 9.298 0 0 0 4.267.116c2.865-.586 5.425-2.33 7.638-4.366 2.242-2.045 4.07-4.454 5.874-6.812 1.795-2.367 3.422-4.801 4.975-7.221 3.027-4.888 5.618-9.813 7.669-14.685 2.066-4.864 3.689-9.631 4.898-14.173a122.31 122.31 0 0 0 1.539-6.625c.418-2.136.706-4.216.606-6.197-.117-3.934-2.173-7.5-5.111-8.691a7.724 7.724 0 0 0-4.27-.508c-1.333.203-2.505.635-3.52 1.088-2.022.943-3.46 1.937-4.428 2.602l-1.094.775c-.246.175-.381.254-.381.254s.113-.108.348-.297c.234-.192.591-.466 1.065-.818.952-.695 2.374-1.72 4.405-2.701 1.02-.472 2.204-.926 3.568-1.149a7.962 7.962 0 0 1 4.422.486c1.515.602 2.857 1.844 3.788 3.42.942 1.576 1.481 3.498 1.576 5.521.114 2.027-.169 4.141-.579 6.292-.425 2.15-.928 4.373-1.517 6.66-1.197 4.566-2.811 9.359-4.874 14.251-2.048 4.899-4.642 9.852-7.678 14.768-1.557 2.434-3.19 4.882-4.993 7.261-1.807 2.366-3.65 4.798-5.935 6.883-2.254 2.071-4.878 3.874-7.889 4.491a9.81 9.81 0 0 1-4.503-.127c-1.458-.392-2.787-1.16-3.879-2.15-2.194-1.997-3.478-4.736-4.032-7.482-.578-2.774-.249-5.589.434-8.159 1.429-5.179 4.128-9.518 6.254-13.698l6.076-11.612c3.757-7.081 7.144-12.632 9.722-16.303a79.219 79.219 0 0 1 3.072-4.15l.847-1.042c.193-.234.302-.345.302-.345z" style="fill:#263238"/><path d="m357.266 395.529-.028.047c1.003-2.82 3.131-3.631 5.418-4.458 2.287-.827 5.066-.736 6.903.858 2.125 1.844 2.387 5.079 1.824 7.835-.195.955-.491 1.933-1.156 2.646-.665.713-1.79 1.077-2.648.613-1.009-.547-1.312-1.985-2.365-2.441-1.209-.524-2.468.55-3.745.874-1.724.438-3.628-.678-4.308-2.322-.48-1.161-.387-2.489.105-3.652zM361.634 381.447c1.007.296 1.561 1.465 1.571 2.717.01 1.252-.387 2.469-.811 3.647-.352.977-.946 2.113-1.984 2.149-.593.021-1.145-.366-1.459-.869-.314-.503-.423-1.107-.468-1.698a9.038 9.038 0 0 1 .613-4.011c.257-.644.61-1.284 1.187-1.669.576-.385 1.421-.439 1.926.036M373.611 383.906c1.007.296 1.561 1.465 1.571 2.717.01 1.252-.387 2.469-.811 3.647-.352.977-.946 2.113-1.984 2.149-.593.021-1.145-.366-1.459-.87-.314-.503-.423-1.107-.468-1.698a9.038 9.038 0 0 1 .613-4.011c.257-.644.61-1.284 1.186-1.669.576-.386 1.421-.439 1.926.036M368.547 379.331c1.007.296 1.561 1.465 1.571 2.717.01 1.252-.387 2.469-.811 3.647-.352.977-.946 2.113-1.984 2.149-.593.021-1.145-.366-1.459-.869-.314-.503-.423-1.107-.468-1.698a9.038 9.038 0 0 1 .613-4.011c.257-.644.61-1.284 1.187-1.669.576-.385 1.421-.439 1.926.036M364.672 420.205c-.897 6.03-2.359 12.014-4.893 17.559s-6.176 10.651-10.973 14.414c-2.201 1.727-4.773 3.204-7.569 3.275-3.951.101-7.548-2.731-9.326-6.26s-2.029-7.631-1.819-11.577c1.913 3.194 4.061 6.595 7.521 7.969 2.989 1.187 6.47.579 9.289-.969 2.82-1.548 5.076-3.942 7.113-6.431a71.862 71.862 0 0 0 10.458-17.267" style="opacity:.3"/><path d="M140.703 382.068c-4.927-1.512-11.03-2.754-14.618.946-2.031 2.095-2.568 5.306-2.035 8.175.534 2.869 1.998 5.472 3.542 7.948 8.889 14.254 21.266 26.314 35.745 34.83 5.276 3.103 12.097 5.702 17.236 2.378 4.802-3.106 5.531-10.19 3.227-15.425-2.305-5.234-6.835-9.087-11.107-12.89-10.147-9.033-20.525-19.184-31.99-25.962" style="fill:#e8505b"/><path d="M140.703 382.068s.141.065.404.216l1.158.679a79.04 79.04 0 0 1 4.331 2.81c3.701 2.535 8.818 6.547 14.819 11.862l9.76 8.746c3.457 3.169 7.505 6.288 10.659 10.637 1.54 2.168 2.834 4.689 3.266 7.489.443 2.765.201 5.78-1.154 8.42-.676 1.309-1.651 2.495-2.879 3.373a9.8 9.8 0 0 1-4.173 1.697c-3.036.477-6.126-.292-8.963-1.441-2.87-1.152-5.449-2.785-7.971-4.367-2.522-1.597-4.91-3.317-7.221-5.051-4.566-3.54-8.732-7.269-12.367-11.14-3.647-3.858-6.838-7.781-9.56-11.638a120.114 120.114 0 0 1-3.754-5.706c-1.138-1.871-2.144-3.751-2.747-5.69-.62-1.928-.789-3.916-.459-5.723.32-1.803 1.141-3.435 2.349-4.53a7.963 7.963 0 0 1 3.971-2.005c1.356-.269 2.623-.259 3.744-.174 2.246.207 3.937.669 5.072.986.567.164.997.296 1.284.393.288.096.431.157.431.157s-.154-.027-.446-.105l-1.296-.343c-1.141-.284-2.835-.711-5.06-.885-1.109-.068-2.358-.062-3.678.215a7.714 7.714 0 0 0-3.821 1.972c-2.334 2.146-3.01 6.206-1.74 9.931.6 1.891 1.599 3.738 2.739 5.591a122.688 122.688 0 0 0 3.763 5.665c2.725 3.83 5.915 7.726 9.555 11.558 3.628 3.844 7.781 7.548 12.329 11.066 2.302 1.722 4.679 3.432 7.19 5.02 2.515 1.576 5.072 3.191 7.888 4.321 2.786 1.131 5.795 1.868 8.684 1.412a9.288 9.288 0 0 0 3.955-1.604c1.158-.827 2.081-1.944 2.727-3.19 1.294-2.51 1.542-5.427 1.116-8.105-.411-2.707-1.657-5.153-3.166-7.291-3.081-4.277-7.102-7.406-10.556-10.594l-9.716-8.791c-5.964-5.345-11.033-9.39-14.691-11.971a99.882 99.882 0 0 0-4.27-2.887l-1.13-.723c-.253-.166-.376-.262-.376-.262z" style="fill:#263238"/><path d="m145.238 395.593.043.034c-1.928-2.29-4.205-2.303-6.637-2.276-2.432.027-5.003 1.086-6.164 3.223-1.344 2.471-.456 5.593 1.038 7.977.518.826 1.137 1.638 2.01 2.073.873.434 2.054.382 2.694-.354.753-.866.533-2.319 1.359-3.115.949-.914 2.504-.35 3.814-.494 1.768-.194 3.16-1.907 3.221-3.684.042-1.256-.51-2.467-1.378-3.384zM136.212 383.935c-.84.631-.949 1.919-.519 3.095.43 1.176 1.227 2.177 2.038 3.131.672.792 1.626 1.647 2.611 1.318.562-.188.944-.744 1.062-1.326.117-.581.008-1.185-.157-1.755a9.038 9.038 0 0 0-1.98-3.542c-.466-.513-1.021-.989-1.696-1.148-.675-.159-1.485.087-1.791.709M125.856 390.435c-.84.631-.949 1.919-.519 3.095.429 1.176 1.227 2.177 2.038 3.131.672.792 1.626 1.647 2.611 1.318.562-.188.944-.744 1.062-1.326.117-.581.008-1.185-.157-1.754a9.038 9.038 0 0 0-1.98-3.542c-.466-.513-1.021-.989-1.696-1.148-.675-.159-1.484.087-1.791.709M128.996 384.376c-.84.631-.948 1.919-.519 3.095.429 1.176 1.227 2.177 2.038 3.131.672.792 1.626 1.647 2.611 1.317.562-.188.944-.744 1.062-1.326.117-.581.008-1.185-.157-1.754a9.038 9.038 0 0 0-1.98-3.542c-.466-.513-1.021-.989-1.696-1.148-.675-.159-1.485.087-1.791.709M146.95 421.3c2.953 5.333 6.42 10.425 10.736 14.731 4.316 4.305 9.518 7.811 15.329 9.654 2.667.846 5.593 1.328 8.237.414 3.735-1.29 6.112-5.203 6.541-9.132.429-3.928-.775-7.858-2.354-11.481-.672 3.662-1.492 7.6-4.251 10.1-2.384 2.16-5.856 2.809-9.04 2.348-3.183-.462-6.135-1.913-8.916-3.53a71.896 71.896 0 0 1-15.847-12.507" style="opacity:.3"/><g style="opacity:.3"><path d="m143.282 415.867-.867 1.22c3.327-5.201 9.597-8.368 15.758-7.96 6.16.408 11.958 4.376 14.569 9.97 2.611 5.595 1.929 12.587-1.714 17.571a88.658 88.658 0 0 1-29.896-20.145" style="fill:#fff"/></g><path d="M425.603 405.999c.018.003-.002.235-.056.674l-.26 1.919c-.231 1.666-.62 4.07-1.169 7.028-1.12 5.903-2.876 14.074-6.164 22.676-1.666 4.288-3.558 8.255-5.582 11.695-.512.855-1.059 1.661-1.565 2.459l-.758 1.173-.811 1.083-1.542 2.052c-.53.63-1.062 1.216-1.557 1.784-.509.556-.95 1.127-1.447 1.591l-1.386 1.327-1.208 1.151-1.099.872-1.53 1.191c-.353.267-.543.401-.554.386-.011-.014.159-.176.49-.469l1.464-1.263 1.064-.902 1.172-1.176 1.349-1.347c.485-.469.913-1.045 1.41-1.604l1.52-1.792 1.506-2.055.794-1.082.741-1.171c.496-.796 1.033-1.599 1.535-2.452 1.986-3.428 3.853-7.375 5.509-11.639 3.27-8.554 5.078-16.684 6.289-22.559a296.896 296.896 0 0 0 1.33-6.99l.356-1.903c.087-.433.142-.66.159-.657zM195.536 345.343c-.012-.013.147-.179.462-.481l1.394-1.306a61.097 61.097 0 0 1 2.256-2.012c.896-.766 1.899-1.659 3.063-2.58 2.289-1.889 5.103-4.031 8.307-6.299a159.22 159.22 0 0 1 10.757-6.878 159.192 159.192 0 0 1 11.319-5.914c3.561-1.652 6.819-3.028 9.597-4.075 1.378-.552 2.651-.978 3.761-1.374a61.458 61.458 0 0 1 2.867-.957l1.826-.56c.419-.122.642-.178.647-.161.005.017-.206.107-.615.261l-1.794.652c-.782.273-1.737.612-2.834 1.039-1.098.422-2.36.871-3.726 1.443-2.754 1.088-5.987 2.495-9.526 4.166a172.918 172.918 0 0 0-11.263 5.931 172.556 172.556 0 0 0-10.743 6.821c-3.209 2.239-6.038 4.344-8.351 6.192-1.176.901-2.193 1.772-3.105 2.515a82.357 82.357 0 0 0-2.31 1.942l-1.458 1.232c-.335.277-.518.417-.531.403zM167.389 328.642c-.005-.008.057-.056.182-.143l.563-.376 2.193-1.402a69.77 69.77 0 0 1 3.524-2.132c1.394-.796 2.959-1.746 4.758-2.669l2.804-1.486c.977-.513 2.02-.994 3.087-1.52 2.124-1.072 4.458-2.076 6.902-3.162a177.152 177.152 0 0 1 16.328-5.99 176.899 176.899 0 0 1 16.879-4.211c2.632-.474 5.128-.953 7.487-1.258 1.178-.163 2.311-.351 3.408-.475l3.155-.344c2.007-.247 3.835-.339 5.436-.463 1.6-.133 2.982-.187 4.113-.215l2.601-.07.677-.005c.152.002.231.007.231.016 0 .009-.077.022-.229.037l-.675.057-2.595.168a83.16 83.16 0 0 0-4.101.302c-1.596.151-3.418.269-5.418.538l-3.144.377c-1.093.134-2.222.332-3.395.504-2.35.323-4.837.817-7.459 1.302a186.036 186.036 0 0 0-16.818 4.238 186.078 186.078 0 0 0-16.293 5.934c-2.442 1.071-4.776 2.058-6.903 3.11-1.067.516-2.112.987-3.092 1.489l-2.813 1.453c-1.806.9-3.38 1.825-4.786 2.596a84.263 84.263 0 0 0-3.564 2.052l-2.242 1.318-.59.332c-.134.072-.206.105-.211.098zM286.559 295.682c.061.147-2.52 1.237-5.367 3.148-2.86 1.894-4.859 3.857-4.971 3.744-.099-.082 1.766-2.245 4.682-4.177 2.904-1.948 5.619-2.838 5.656-2.715zM303.48 301.113c-.038.092-1.476-.574-3.932-1.197a30.304 30.304 0 0 0-9.789-.893c-3.837.288-7.291 1.207-9.438 2.505-2.187 1.291-2.864 2.83-2.945 2.758-.022-.01.11-.391.518-.99.414-.589 1.137-1.381 2.232-2.081 2.183-1.428 5.692-2.418 9.595-2.712 3.921-.294 7.478.313 9.924 1.058 1.231.359 2.194.748 2.85 1.034.65.303 1 .485.985.518z" style="fill:#263238"/><path d="m270.623 309.451 1.165 2.798c.308.741.62 1.494.702 2.292.081.798-.1 1.661-.662 2.233-.825.839-2.266.802-3.261.172-.995-.63-1.612-1.712-2.037-2.81-.425-1.098-.699-2.256-1.215-3.314 0 0 2.123-1.72 1.64-4.753 0 .001 1.074 3.198 3.668 3.382z" style="fill:#f5f5f5"/><path d="M254.289 299.246s2.518-5.712 8.892-7.393 13.022 5.015 13.022 5.015-7.718-2.265-7.601 1.562c.117 3.827 2.376 3.743-.183 6.258-2.559 2.514-6.949-.131-8.035-3.095l-2.064-2.902-4.031.555z" style="fill:#263238"/><path d="M280.709 303.025c.018-.001.036.122.055.359.03.238.016.589-.027 1.042-.114.892-.484 2.214-1.495 3.515-.989 1.27-2.668 2.586-4.888 2.802-2.189.241-4.671-.725-6.331-2.634a7.163 7.163 0 0 1-1.572-3.074l.492-.138c.675 2.048.181 4.181-.832 5.638-1.018 1.501-2.563 2.247-3.836 2.489a6.152 6.152 0 0 1-3.038-.152 4.09 4.09 0 0 1-.757-.312c-.164-.089-.245-.142-.238-.157.018-.038.367.133 1.043.295.67.156 1.699.284 2.92 0 1.204-.275 2.618-1.007 3.535-2.413.919-1.369 1.346-3.361.718-5.223l.492-.138a6.726 6.726 0 0 0 1.466 2.843c1.549 1.782 3.868 2.698 5.892 2.497 2.053-.17 3.666-1.37 4.646-2.555a7.548 7.548 0 0 0 1.582-3.317c.157-.866.119-1.366.173-1.367z" style="fill:#263238"/><path d="M268.349 292.79c-.005.077-.787.067-2.039.086-1.247.027-2.986.089-4.791.624-1.801.536-3.234 1.538-4.055 2.444-.837.904-1.13 1.641-1.213 1.602-.05-.011.124-.821.934-1.842.792-1.021 2.285-2.139 4.184-2.703 1.894-.56 3.688-.56 4.947-.493 1.267.075 2.038.215 2.033.282z" style="fill:#fff"/><path d="M270.269 317.637c-.123.057-1.263-2.209-2.16-5.196-.906-2.986-1.21-5.504-1.076-5.524.149-.027.678 2.423 1.574 5.374.886 2.951 1.801 5.285 1.662 5.346zM199.072 328.854c-.011-.014.127-.136.4-.355l1.21-.936c1.051-.813 2.625-1.921 4.613-3.223 1.984-1.31 4.419-2.76 7.183-4.258a108.946 108.946 0 0 1 9.247-4.37 109.116 109.116 0 0 1 9.646-3.405c3.019-.882 5.769-1.565 8.1-2.032 2.329-.475 4.226-.796 5.545-.958l1.518-.187c.348-.037.531-.048.534-.03.003.018-.176.063-.519.134l-1.501.283c-1.307.223-3.189.598-5.499 1.118-2.313.51-5.042 1.228-8.039 2.131-2.989.93-6.242 2.062-9.587 3.427a119.428 119.428 0 0 0-9.22 4.312c-2.764 1.468-5.208 2.879-7.21 4.144-2.007 1.257-3.608 2.316-4.693 3.077l-1.266.856c-.292.193-.451.287-.462.272z" style="fill:#263238"/><circle cx="227.259" cy="279.595" r="22.547" style="fill:#f5f5f5" transform="rotate(-76.585 227.262 279.6)"/><path d="M249.806 279.595c0 10.886-7.344 19.711-13.57 19.711s-11.273-8.825-11.273-19.711 5.047-19.711 11.273-19.711c6.225 0 13.57 8.825 13.57 19.711z" style="fill:#263238"/><circle cx="241.242" cy="268.45" r="3.859" style="fill:#fff"/><path d="M231.261 293.925c-.032.017-.231-.32-.565-.947-.344-.621-.764-1.561-1.208-2.752-.453-1.188-.868-2.649-1.208-4.298a32.151 32.151 0 0 1-.561-5.441c-.01-1.945.171-3.793.449-5.453.305-1.655.691-3.125 1.119-4.322.419-1.199.82-2.148 1.151-2.776.321-.633.513-.974.545-.958.09.042-.605 1.448-1.346 3.848-.378 1.197-.721 2.654-.996 4.288a34.916 34.916 0 0 0-.401 5.368c.03 1.912.231 3.725.512 5.358.309 1.627.681 3.077 1.084 4.266.789 2.383 1.514 3.775 1.425 3.819z" style="fill:#fff"/><path d="M221.528 250.88c-.059.729-.897 1.293-2.035 1.813-1.143.537-2.591 1.028-4.064 1.664-1.484.617-2.761 1.255-3.857 1.75-1.091.479-2.03.803-2.652.415-.595-.365-.733-1.478-.038-2.93.67-1.438 2.293-3.115 4.527-4.035 2.224-.95 4.439-.935 5.905-.542 1.488.412 2.273 1.165 2.214 1.865z" style="fill:#263238"/><path d="m113.914 443.002 5.064-7.942c24.142 26.518 103.9 58.057 175.315-13.234 30.669-30.615 28.186-82.355 28.186-82.355l-6.099-19.158h6.099s17.684 32.611-.826 75.309c0 0-19.036 50.606-77.173 68.978-91.762 28.999-130.566-21.598-130.566-21.598z" style="fill:#e8505b"/><g style="opacity:.7"><path d="m113.914 443.002 5.064-7.942c24.142 26.518 103.9 58.057 175.315-13.234 30.669-30.615 28.186-82.355 28.186-82.355l-6.099-19.158h6.099s17.684 32.611-.826 75.309c0 0-19.036 50.606-77.173 68.978-91.762 28.999-130.566-21.598-130.566-21.598z" style="fill:#fff"/></g><circle cx="81.89" cy="422.053" r="43.35" style="fill:#e8505b" transform="rotate(-45.001 81.886 422.056)"/><g style="opacity:.7"><circle cx="81.89" cy="422.053" r="43.35" style="fill:#fff" transform="rotate(-45.001 81.886 422.056)"/></g><path d="M92.281 379.907c.018.004-.033.287-.146.825l-.519 2.345-.388 1.693c-.157.615-.361 1.274-.562 1.987-.424 1.42-.84 3.06-1.493 4.81l-.967 2.766c-.342.96-.775 1.929-1.181 2.949-.787 2.052-1.823 4.158-2.874 6.393-2.223 4.409-4.946 9.119-8.223 13.786-3.321 4.639-6.865 8.769-10.29 12.326-1.761 1.731-3.406 3.406-5.082 4.828-.828.721-1.599 1.45-2.392 2.091l-2.29 1.828c-1.435 1.195-2.844 2.131-4.044 3.001-.606.426-1.161.837-1.689 1.188l-1.469.926-2.041 1.266c-.469.284-.72.426-.73.411-.009-.015.223-.187.674-.5l1.985-1.346 1.44-.962c.519-.363 1.064-.784 1.66-1.22 1.18-.89 2.569-1.843 3.984-3.052l2.26-1.847c.783-.646 1.544-1.38 2.362-2.105 1.656-1.43 3.282-3.109 5.027-4.841 3.39-3.559 6.906-7.677 10.21-12.292 3.261-4.644 5.983-9.323 8.219-13.699 1.057-2.219 2.104-4.309 2.905-6.345.413-1.012.854-1.973 1.204-2.925l.995-2.744c.673-1.736 1.113-3.362 1.562-4.77.214-.707.432-1.361.602-1.97l.431-1.678.613-2.319c.144-.532.229-.808.247-.804zM102.533 384.332c.018.004-.041.303-.169.869l-.584 2.472-.435 1.784c-.167.65-.399 1.342-.622 2.094-.477 1.493-.928 3.225-1.654 5.062l-1.073 2.907c-.366 1.014-.855 2.025-1.302 3.096-.874 2.154-2.009 4.361-3.177 6.697-2.453 4.609-5.467 9.513-9.091 14.333-3.664 4.793-7.575 9.018-11.336 12.639-1.921 1.769-3.736 3.462-5.558 4.904-.904.728-1.739 1.479-2.61 2.114l-2.485 1.85c-1.56 1.212-3.087 2.144-4.38 3.028a49.827 49.827 0 0 1-3.406 2.133l-2.194 1.279c-.504.287-.773.431-.782.415-.009-.016.242-.189.729-.506l2.14-1.361a56.484 56.484 0 0 0 3.351-2.203c1.275-.905 2.783-1.855 4.323-3.082l2.457-1.87c.862-.64 1.687-1.396 2.581-2.129 1.803-1.451 3.599-3.148 5.503-4.919 3.726-3.624 7.607-7.837 11.253-12.606 3.606-4.797 6.616-9.668 9.082-14.243 1.175-2.318 2.319-4.509 3.206-6.646.454-1.063.951-2.066 1.325-3.072l1.101-2.884c.745-1.823 1.219-3.541 1.721-5.021.235-.745.481-1.431.662-2.076l.478-1.768.678-2.444c.158-.559.251-.85.268-.846zM112.033 392.118c.017.005-.06.302-.223.865l-.738 2.452-.546 1.769c-.214.642-.48 1.328-.748 2.071-.557 1.479-1.126 3.189-1.945 5.004l-1.228 2.872c-.433.996-.958 1.998-1.461 3.055-.981 2.127-2.221 4.301-3.486 6.609-2.649 4.548-5.836 9.393-9.587 14.176-3.794 4.752-7.778 8.968-11.596 12.592-1.956 1.762-3.787 3.468-5.632 4.912-.913.733-1.767 1.474-2.637 2.124l-2.513 1.855c-1.578 1.214-3.112 2.161-4.423 3.043-.661.432-1.268.848-1.843 1.204l-1.597.938-2.217 1.282c-.509.288-.781.432-.79.416-.009-.016.245-.19.737-.507l2.164-1.364 1.569-.974c.566-.368 1.163-.795 1.816-1.237 1.292-.902 2.807-1.868 4.366-3.097l2.485-1.876c.861-.656 1.706-1.403 2.609-2.14 1.826-1.453 3.639-3.164 5.578-4.929 3.784-3.628 7.74-7.835 11.517-12.566 3.735-4.762 6.919-9.577 9.58-14.093 1.271-2.292 2.52-4.45 3.514-6.56.51-1.048 1.042-2.042 1.483-3.031l1.255-2.849c.838-1.8 1.429-3.496 2.011-4.961.281-.736.559-1.416.787-2.051l.588-1.751.83-2.419c.193-.551.304-.839.321-.834zM123.369 433.246c-.017.032-.359-.11-.965-.395a73.696 73.696 0 0 1-2.534-1.268 155.29 155.29 0 0 1-8.146-4.583 155.703 155.703 0 0 1-7.865-5.052 73.748 73.748 0 0 1-2.307-1.644c-.535-.402-.821-.638-.801-.668.02-.03.345.15.915.5l2.396 1.505a404.513 404.513 0 0 0 7.931 4.913 409.355 409.355 0 0 0 8.054 4.706l2.452 1.412c.576.34.886.543.87.574zM125.204 423.875c-.046.061-1.138-.695-2.906-1.905a157.892 157.892 0 0 0-7.02-4.546c-2.794-1.693-5.382-3.127-7.257-4.166-1.876-1.036-3.035-1.686-3.001-1.753.016-.032.327.088.876.333.549.243 1.334.617 2.296 1.094 1.922.957 4.549 2.345 7.356 4.047a88.815 88.815 0 0 1 6.964 4.692 52.75 52.75 0 0 1 2.006 1.566c.462.383.708.609.686.638zM98.486 461.202c-.144.004-.483-7.946-.757-17.754-.274-9.812-.38-17.766-.236-17.77.144-.004.483 7.944.757 17.756.274 9.807.379 17.764.236 17.768z" style="fill:#e8505b"/><path d="M77.116 466.166c-.144 0-.26-4.446-.26-9.93 0-5.486.117-9.931.26-9.931.144 0 .26 4.445.26 9.931.001 5.484-.116 9.93-.26 9.93zM87.62 465.019c-.144-.001-.216-6.5-.162-14.514.054-8.017.215-14.513.359-14.512s.216 6.499.162 14.515c-.055 8.015-.216 14.512-.359 14.511zM65.461 429.794c-.08.119-5.738-3.536-12.636-8.163-6.9-4.629-12.427-8.477-12.347-8.596.08-.119 5.737 3.535 12.637 8.164 6.898 4.627 12.426 8.476 12.346 8.595zM57.907 435.993c-.015.033-.318-.07-.853-.284-.537-.211-1.3-.55-2.231-.992-1.863-.884-4.378-2.234-7.042-3.91a95.584 95.584 0 0 1-6.617-4.586c-1.641-1.245-2.616-2.065-2.575-2.121.045-.06 1.098.656 2.79 1.822 1.693 1.165 4.031 2.774 6.679 4.444a113.377 113.377 0 0 0 6.931 4.023c1.811.965 2.95 1.533 2.918 1.604zM83.934 403.596c.012.034-.531.241-1.526.588-.494.184-1.11.374-1.834.564-.72.204-1.541.434-2.466.618-1.834.442-4.06.758-6.536 1.034-2.482.22-5.224.332-8.1.253a72.963 72.963 0 0 1-8.07-.751c-2.457-.415-4.66-.855-6.471-1.379a35.81 35.81 0 0 1-2.435-.726 22.046 22.046 0 0 1-1.81-.634c-.982-.38-1.517-.606-1.504-.639.013-.034.572.128 1.57.448.496.169 1.11.353 1.829.547.715.204 1.528.443 2.442.648 1.811.476 4.007.875 6.45 1.261 2.451.337 5.161.604 8.015.705a76.94 76.94 0 0 0 8.04-.211c2.459-.248 4.674-.524 6.504-.917.923-.16 1.744-.364 2.467-.539a25.288 25.288 0 0 0 1.848-.476c1.01-.285 1.575-.427 1.587-.394zM88.722 392.375c.014.033-.51.275-1.473.686a22.76 22.76 0 0 1-1.778.688c-.698.257-1.496.54-2.396.8-1.782.578-3.956 1.089-6.381 1.586a73.445 73.445 0 0 1-7.988 1.028 68.07 68.07 0 0 1-8.057.026c-2.47-.2-4.691-.453-6.523-.857a26.549 26.549 0 0 1-2.461-.575c-.722-.182-1.337-.36-1.828-.546-.99-.343-1.529-.548-1.517-.582.012-.034.574.107 1.576.388.497.154 1.116.303 1.84.457.719.171 1.539.355 2.459.496 1.825.355 4.033.568 6.484.74a74.23 74.23 0 0 0 7.994-.067c2.831-.2 5.511-.564 7.935-.98 2.413-.468 4.581-.938 6.365-1.467a40.938 40.938 0 0 0 2.405-.722 30.977 30.977 0 0 0 1.8-.602c.98-.351 1.53-.53 1.544-.497zM91.685 382.501c.012.034-.46.228-1.324.551-.862.328-2.127.756-3.703 1.241a85.343 85.343 0 0 1-12.571 2.831c-4.993.72-9.571.859-12.869.724-1.649-.064-2.982-.164-3.897-.279-.917-.107-1.421-.183-1.417-.219.004-.036.514-.028 1.433.017.918.053 2.248.096 3.89.113 3.284.04 7.825-.156 12.786-.871 4.958-.722 9.377-1.791 12.543-2.669 1.584-.438 2.862-.812 3.742-1.08.881-.263 1.375-.393 1.387-.359zM109.198 425.15c.106.097-2.377 2.987-5.546 6.453-3.17 3.468-5.825 6.199-5.931 6.102-.106-.097 2.377-2.986 5.547-6.454 3.168-3.466 5.824-6.198 5.93-6.101zM117.519 430.07c.03.02-.132.318-.453.841-.316.526-.814 1.261-1.463 2.145a41.087 41.087 0 0 1-5.794 6.313 41.027 41.027 0 0 1-6.996 4.949c-.959.532-1.751.933-2.313 1.18-.559.252-.875.375-.891.343-.038-.076 1.161-.703 3.018-1.84a50.53 50.53 0 0 0 6.839-5.023 50.47 50.47 0 0 0 5.846-6.147c1.363-1.698 2.137-2.808 2.207-2.761zM120.047 434.514c.125-.004-.108 2.725-1.737 5.609-1.604 2.899-3.806 4.527-3.868 4.418-.115-.118 1.867-1.869 3.413-4.672 1.578-2.785 2.032-5.391 2.192-5.355zM128.438 443.697c.127.019-.405 2.217-2.124 4.337-1.702 2.136-3.733 3.127-3.779 3.007-.089-.134 1.745-1.284 3.373-3.333 1.65-2.031 2.379-4.069 2.53-4.011zM141.947 451.962c.127-.016.096 2.384-1.298 4.907-1.37 2.538-3.373 3.859-3.428 3.744-.109-.121 1.666-1.567 2.971-3.994 1.335-2.408 1.594-4.683 1.755-4.657zM157.528 459.461c.121-.047.544 2.251-.485 4.836-1.001 2.598-2.871 3.997-2.928 3.88-.119-.111 1.501-1.608 2.443-4.07.98-2.446.807-4.646.97-4.646zM171.868 472.25c-.15-.049.455-1.98.592-4.439.158-2.459-.211-4.448-.057-4.479.124-.041.738 1.963.577 4.51-.144 2.547-.994 4.463-1.112 4.408zM183.621 473.107c-.146-.061.581-1.796.769-4.063.213-2.266-.198-4.101-.044-4.136.12-.05.782 1.807.562 4.182-.2 2.375-1.177 4.087-1.287 4.017zM200.06 472.95c-.154-.026.093-1.711-.178-3.758-.25-2.05-.912-3.62-.769-3.683.112-.069 1.02 1.468 1.286 3.618.28 2.146-.213 3.862-.339 3.823zM211.417 472.033c-.156-.004-.162-1.612-.7-3.486-.519-1.88-1.352-3.256-1.221-3.34.101-.085 1.174 1.223 1.722 3.199.563 1.971.33 3.647.199 3.627zM224.745 469.071c-.156-.009-.079-1.572-.666-3.36-.563-1.796-1.535-3.022-1.413-3.121.085-.102 1.303 1.046 1.908 2.961.623 1.911.299 3.553.171 3.52zM241.158 465.73c-.158.001-.174-1.754-.911-3.74-.713-1.994-1.831-3.348-1.709-3.449.083-.101 1.441 1.165 2.199 3.271.774 2.098.55 3.942.421 3.918zM255.028 460.325c-.151.043-.701-1.768-1.882-3.744-1.165-1.987-2.487-3.34-2.377-3.451.081-.104 1.614 1.124 2.825 3.186 1.225 2.053 1.564 3.988 1.434 4.009zM270.473 452.22c-.154.038-.618-1.875-1.882-3.895-1.242-2.034-2.745-3.305-2.642-3.426.065-.112 1.784 1.026 3.085 3.152 1.319 2.114 1.568 4.161 1.439 4.169zM285.582 441.393c-.15.055-.745-1.692-2.209-3.356-1.442-1.684-3.087-2.519-3.012-2.66.032-.127 1.875.537 3.406 2.318 1.547 1.766 1.944 3.685 1.815 3.698zM298.52 430.341c-.127.09-1.33-1.519-3.149-3.166-1.808-1.66-3.521-2.709-3.443-2.844.056-.12 1.932.751 3.794 2.459 1.871 1.697 2.912 3.484 2.798 3.551zM310.111 415.927c-.135.084-1.13-1.535-2.895-3.008-1.748-1.493-3.511-2.203-3.451-2.35.026-.127 1.952.39 3.787 1.952 1.848 1.547 2.68 3.359 2.559 3.406zM320.437 398.779c-.117.109-1.476-1.418-3.646-2.595-2.156-1.202-4.173-1.532-4.144-1.69-.004-.129 2.135-.022 4.395 1.234 2.27 1.236 3.506 2.986 3.395 3.051zM326.722 380.248c-.09.135-1.805-1.14-4.305-1.711-2.492-.605-4.596-.23-4.616-.391-.053-.117 2.111-.748 4.736-.116 2.63.606 4.285 2.137 4.185 2.218zM329.513 360.35c-.056.145-1.684-.423-3.772-.645-2.086-.239-3.799-.04-3.822-.194-.032-.129 1.707-.571 3.879-.324 2.173.234 3.775 1.045 3.715 1.163zM328.477 340.422c-.024.149-1.288.042-2.833.116-1.547.064-2.795.284-2.833.138-.04-.131 1.198-.59 2.809-.659 1.61-.075 2.884.271 2.857.405zM324.395 326.727c-.064.141-1.327-.461-2.96-.266-1.637.158-2.743 1.016-2.835.891-.042-.048.176-.338.657-.662.477-.324 1.235-.65 2.122-.747.887-.094 1.697.062 2.232.277.54.214.815.451.784.507z" style="fill:#e8505b"/><path d="M256.578 394.018c4.856 9.214 16.164 13.942 26.503 12.684 10.34-1.257 19.547-7.693 25.97-15.893 4.744-6.058 8.272-13.908 6.306-21.347-5.072 10.528-14.23 19.022-25.109 23.289-10.879 4.267-23.37 4.264-34.247-.008" style="opacity:.3"/><path d="M317.097 314.748c-2.294-3.537-3.163-7.971-2.375-12.112s3.224-7.946 6.657-10.394c2.759-1.968 6.089-3.069 8.7-5.229 3.263-2.7 5.102-6.895 5.401-11.119.3-4.225-.839-8.466-2.735-12.253l2.782-1.373s.086.104.238.301c7.915 10.297 4.319 25.259-7.332 30.997-2.271 1.118-4.423 2.361-5.837 3.594-3.467 3.024-2.049 6.406-2.049 6.406" style="fill:#e8505b"/><g style="opacity:.7"><path d="M317.097 314.748c-2.294-3.537-3.163-7.971-2.375-12.112s3.224-7.946 6.657-10.394c2.759-1.968 6.089-3.069 8.7-5.229 3.263-2.7 5.102-6.895 5.401-11.119.3-4.225-.839-8.466-2.735-12.253l2.782-1.373s.086.104.238.301c7.915 10.297 4.319 25.259-7.332 30.997-2.271 1.118-4.423 2.361-5.837 3.594-3.467 3.024-2.049 6.406-2.049 6.406" style="fill:#fff"/></g><path d="M321.044 303.753c-.057.147-1.541-.5-3.448-.307-1.911.157-3.252 1.063-3.335.929-.106-.084 1.209-1.269 3.287-1.448 2.076-.202 3.585.724 3.496.826zM323.62 296.116c-.141.056-.578-.814-1.405-1.636-.815-.835-1.68-1.28-1.622-1.42.036-.132 1.086.131 1.992 1.054.914.914 1.167 1.967 1.035 2.002zM333.434 290.323c-.146.043-.509-.919-1.293-1.869-.77-.961-1.638-1.512-1.567-1.646.048-.127 1.117.259 1.971 1.318.862 1.051 1.023 2.176.889 2.197zM340.039 277.88c-.062.138-1.034-.197-2.268-.353-1.233-.169-2.258-.097-2.282-.246-.031-.133 1.026-.449 2.35-.271 1.325.171 2.265.75 2.2.87zM337.771 265.86c-.025.149-.846.105-1.785.381-.944.26-1.619.729-1.719.616-.103-.091.5-.815 1.576-1.116 1.074-.311 1.967-.013 1.928.119zM245.212 339.892c3.542-2.307 8.232-1.547 12.245-.216s8.058 3.175 12.267 2.776c4.584-.435 8.515-3.489 11.548-6.952a39.903 39.903 0 0 0 8.164-14.745c1.666-5.544 2.511-12.06 7.283-15.337 4.653-3.196 11.389-1.625 15.494 2.251 4.104 3.876 6.08 9.478 7.375 14.972 2.998 12.72 3.052 26.291-1.063 38.695s-12.594 23.535-24.089 29.752c-11.495 6.217-26.002 7.112-37.703 1.291" style="fill:#e8505b"/><path d="M256.732 392.379s.187.065.54.216l1.559.681c.696.271 1.566.589 2.596.949 1.049.306 2.249.693 3.641.974 2.767.608 6.236 1.045 10.263.907 2.009-.098 4.16-.284 6.399-.733a41.096 41.096 0 0 0 6.955-1.921c4.769-1.702 9.63-4.564 14.113-8.477 4.479-3.919 8.539-8.951 11.689-14.861 3.167-5.901 5.347-12.694 6.34-19.914 1.019-7.221.807-14.855-.477-22.477-.671-3.806-1.505-7.558-2.811-11.078-1.32-3.494-3.2-6.797-5.935-9.169-2.709-2.346-6.272-3.671-9.717-3.497a9.707 9.707 0 0 0-4.805 1.504c-1.43.892-2.545 2.187-3.405 3.592-1.722 2.846-2.458 6.088-3.299 9.146-.787 3.089-1.807 6.055-3.159 8.74a40.205 40.205 0 0 1-4.669 7.319c-1.744 2.172-3.648 4.101-5.757 5.569-2.098 1.469-4.421 2.46-6.734 2.726-2.317.279-4.508-.14-6.452-.687-3.89-1.149-7.065-2.627-9.876-3.079-2.787-.542-5.031-.291-6.445.158a9.637 9.637 0 0 0-1.561.654c-.334.186-.513.27-.513.27s.16-.114.487-.317c.329-.199.845-.455 1.554-.708 1.42-.487 3.695-.775 6.514-.257 2.844.427 6.057 1.887 9.918 2.998 1.93.529 4.083.923 6.333.639 2.248-.272 4.508-1.247 6.562-2.699 2.064-1.451 3.935-3.36 5.654-5.518a39.884 39.884 0 0 0 4.596-7.258c1.331-2.666 2.326-5.583 3.104-8.668.835-3.056 1.56-6.33 3.331-9.278.885-1.454 2.049-2.813 3.55-3.754a10.202 10.202 0 0 1 5.043-1.589 13.393 13.393 0 0 1 5.332.831c1.715.624 3.345 1.548 4.746 2.778 2.826 2.448 4.744 5.828 6.085 9.371 1.327 3.573 2.164 7.342 2.84 11.173 1.292 7.672 1.503 15.359.469 22.635-1.007 7.274-3.216 14.125-6.422 20.07-3.189 5.955-7.297 11.02-11.828 14.96-4.535 3.934-9.453 6.803-14.272 8.498a41.18 41.18 0 0 1-7.021 1.901c-2.258.44-4.426.614-6.449.698-4.056.111-7.543-.359-10.317-1-1.396-.298-2.598-.702-3.646-1.025a67.348 67.348 0 0 1-2.588-.999l-1.542-.73c-.342-.166-.513-.264-.513-.264z" style="fill:#263238"/><path d="M299.774 317.152c-.037.036-.608-.484-1.202-1.564-.597-1.071-1.128-2.744-1.105-4.636.031-1.893.609-3.55 1.236-4.604.625-1.063 1.209-1.566 1.246-1.53.071.058-.404.639-.92 1.702-.521 1.057-1.01 2.64-1.041 4.439-.02 1.799.424 3.395.915 4.466.485 1.077.943 1.671.871 1.727zM305.845 316.275c-.048.033-.531-.551-1.06-1.649-.53-1.093-1.047-2.727-1.164-4.592-.111-1.866.204-3.552.597-4.701.391-1.155.8-1.792.852-1.766.165.048-1.18 2.802-.929 6.435.192 3.635 1.861 6.205 1.704 6.273zM310.696 318.022c-.122.045-.835-2.077-.755-4.802.061-2.726.881-4.808 1-4.757.152.043-.423 2.132-.48 4.77-.079 2.638.389 4.754.235 4.789z" style="fill:#263238"/><path d="M394.189 330.499c-9.145 5.578-21.319 4.516-30.798-.49-9.48-5.005-16.658-13.395-22.647-22.204-1.7-2.501-3.424-5.147-6.066-6.654-5.184-2.957-12.36-.102-15.336 5.023-2.976 5.125-2.424 11.65-.124 17.103 0 0 6.104 29.557 37.901 47.943" style="fill:#e8505b"/><path d="M357.118 371.221c-.004.007-.095-.042-.27-.144l-.774-.462-2.98-1.828c-.638-.416-1.395-.814-2.141-1.374l-2.457-1.796c-.868-.666-1.866-1.297-2.804-2.124l-3.02-2.576c-4.145-3.726-8.826-8.614-13.111-14.895-2.181-3.109-4.186-6.605-6.027-10.381-1.813-3.791-3.477-7.868-4.561-12.312l.014.047c-1.401-3.352-2.229-7.166-1.846-11.069.219-1.936.715-3.895 1.663-5.67.907-1.801 2.312-3.355 3.984-4.532 2.459-1.728 5.493-2.664 8.444-2.323 1.472.162 2.883.697 4.111 1.478 1.221.799 2.233 1.841 3.121 2.934.889 1.097 1.663 2.254 2.431 3.386.77 1.13 1.546 2.239 2.33 3.325a92.098 92.098 0 0 0 4.865 6.165c3.341 3.869 6.919 7.199 10.63 9.817 3.712 2.612 7.543 4.517 11.244 5.615 7.412 2.296 13.914 1.74 18.031.559a12.145 12.145 0 0 0 1.46-.45c.45-.162.879-.296 1.265-.452.758-.343 1.417-.598 1.921-.862l1.147-.606c.26-.134.396-.199.401-.191.005.008-.122.088-.374.237l-1.126.653c-.499.281-1.154.552-1.91.912-.385.165-.813.307-1.264.478-.449.177-.936.34-1.464.475-4.132 1.25-10.694 1.872-18.194-.402-3.744-1.086-7.63-2.995-11.385-5.614-3.756-2.626-7.374-5.973-10.745-9.857a91.94 91.94 0 0 1-4.905-6.187 147.364 147.364 0 0 1-2.345-3.334c-.771-1.133-1.539-2.277-2.409-3.348-.869-1.067-1.847-2.068-3.008-2.825-1.167-.737-2.491-1.24-3.889-1.394-2.798-.323-5.719.57-8.084 2.234-3.315 2.229-5.059 6.081-5.434 9.829-.376 3.79.425 7.531 1.795 10.821l.008.018.007.028c1.056 4.363 2.706 8.445 4.495 12.21 1.82 3.758 3.802 7.242 5.958 10.343 4.237 6.265 8.867 11.156 12.967 14.901l2.987 2.593c.927.833 1.915 1.471 2.773 2.145l2.429 1.822c.737.569 1.485.977 2.115 1.404l2.931 1.895.752.499c.168.117.252.179.248.185z" style="fill:#263238"/><path d="M327.819 317.886c-.166.053-.782-3.395-3.167-6.863-2.341-3.5-5.317-5.347-5.206-5.481.031-.05.809.336 1.918 1.193 1.108.852 2.511 2.221 3.719 3.996 1.202 1.778 1.955 3.588 2.337 4.932.386 1.347.457 2.213.399 2.223zM334.02 313.883c-.172.029-.274-3.526-2.16-7.36-1.838-3.859-4.563-6.144-4.433-6.261.037-.045.763.456 1.752 1.478.988 1.017 2.198 2.597 3.15 4.556.946 1.962 1.434 3.89 1.619 5.296.188 1.409.131 2.29.072 2.291z" style="fill:#263238"/><g style="opacity:.3"><path d="M313.325 372.571c2.492-3.807-7.769-4.707-12.289-4.186-6.543.755-12.766 4.014-17.113 8.963-4.346 4.949-6.775 11.541-6.678 18.127 0 0 19.702 2.117 36.08-22.904z" style="fill:#fff"/></g><path d="M330.175 355.559c5.129 7.908 12.977 14.016 21.902 17.046.96.326 1.982.621 2.976.418.994-.202 1.926-1.066 1.854-2.077a77.108 77.108 0 0 1-26.735-24.101 15.097 15.097 0 0 0 1.259 9.051" style="opacity:.3"/><circle cx="300.48" cy="272.129" r="22.547" style="fill:#f5f5f5" transform="rotate(-45.001 300.478 272.134)"/><path d="M323.026 273.083c0 10.886-5.713 19.976-12.086 19.976s-11.539-8.825-11.539-19.711 5.166-19.711 11.539-19.711c6.374.001 12.086 8.56 12.086 19.446z" style="fill:#263238"/><path d="M305.301 282.431c-.032.016-.192-.249-.456-.745-.272-.492-.599-1.24-.936-2.187-.682-1.891-1.272-4.659-1.195-7.746.089-3.088.828-5.82 1.61-7.672.388-.928.754-1.657 1.053-2.133.29-.481.465-.737.496-.719.083.046-.527 1.125-1.205 2.986-.682 1.855-1.346 4.534-1.433 7.553-.075 3.018.442 5.728 1.024 7.618.576 1.894 1.127 3.004 1.042 3.045z" style="fill:#fff"/><circle cx="313.795" cy="260.733" r="3.859" style="fill:#fff"/><path d="M315.077 244.299c-.432.592-1.514.577-2.891.359-1.389-.214-3.087-.62-4.942-.923-1.855-.313-3.541-.477-4.899-.665-1.347-.198-2.385-.458-2.655-1.141-.261-.648.376-1.653 1.904-2.464.756-.417 1.733-.718 2.849-.909a12.064 12.064 0 0 1 3.656.042c2.579.421 4.66 1.644 5.844 2.823 1.196 1.199 1.55 2.313 1.134 2.878z" style="fill:#263238"/><path d="M304.864 300.295c-3.456-7.076-.889-16.526 5.671-20.882 6.56-4.356 16.266-3.053 21.446 2.878" style="fill:#e8505b"/><path d="M331.981 282.291c-.038.035-.484-.453-1.376-1.224-.886-.777-2.305-1.762-4.236-2.593-1.925-.837-4.409-1.429-7.185-1.385-2.764.034-5.825.799-8.504 2.541-2.646 1.793-4.539 4.318-5.644 6.852-1.118 2.542-1.537 5.062-1.512 7.16.016 2.102.374 3.792.746 4.91.365 1.121.642 1.721.594 1.743-.016.008-.097-.135-.235-.417-.123-.288-.371-.689-.551-1.26-.436-1.113-.858-2.822-.922-4.971-.072-2.144.316-4.734 1.441-7.357 1.11-2.614 3.051-5.235 5.796-7.094 2.778-1.807 5.946-2.578 8.786-2.587 2.854-.019 5.391.629 7.339 1.527 1.955.893 3.367 1.945 4.224 2.779.456.388.73.772.948.997.204.237.305.367.291.379zM260.084 214.899c.004.018-.173.077-.513.174l-1.491.399c-.652.154-1.437.386-2.346.665l-1.458.434-1.613.554c-4.528 1.53-10.598 4.221-16.821 8.038-6.252 3.777-11.478 7.862-15.202 10.865a264.422 264.422 0 0 0-4.353 3.638l-1.185.99c-.275.222-.425.332-.437.319-.012-.013.115-.15.367-.397l1.121-1.063c.973-.924 2.43-2.208 4.253-3.77 3.672-3.082 8.883-7.23 15.167-11.027 6.255-3.837 12.394-6.495 16.975-7.942l1.633-.522 1.477-.398c.92-.253 1.716-.457 2.377-.582l1.516-.304c.345-.064.529-.089.533-.071zM115.062 92.784c-.035.01-.178-.408-.409-1.175a13.753 13.753 0 0 1-.369-1.412c-.12-.556-.283-1.186-.379-1.897-.252-1.412-.415-3.118-.465-5.016-.02-1.898.091-3.989.419-6.158a38.643 38.643 0 0 1 1.476-5.994c.625-1.793 1.3-3.368 1.969-4.637.308-.648.655-1.198.938-1.691.279-.496.55-.905.781-1.232.453-.66.717-1.014.747-.994.085.055-.911 1.519-2.137 4.081-.621 1.277-1.252 2.847-1.844 4.625a41.737 41.737 0 0 0-1.416 5.924 41.697 41.697 0 0 0-.453 6.072c.023 1.874.146 3.561.349 4.966.388 2.813.89 4.511.793 4.538z" style="fill:#263238"/><path d="M143.887 50.699H364.45v124.064H143.887z" style="fill:#fff" transform="rotate(-10.539 254.239 112.756)"/><path d="M373.937 153.541s-.153-.746-.428-2.183l-1.207-6.364-4.586-24.371-16.673-89.016.232.16-216.812 40.408-.016.003.208-.304 22.68 121.974-.283-.194 156.001-28.91 44.804-8.27 11.94-2.191 3.084-.559c.694-.126 1.056-.183 1.056-.183s-.339.073-1.023.205l-3.051.583-11.88 2.241-44.725 8.39-156.116 29.171-.239.045-.044-.239L134.144 71.97l-.048-.256.256-.048.016-.003 216.835-40.289.196-.036.036.196 16.487 89.175 4.479 24.346 1.157 6.336c.259 1.427.379 2.15.379 2.15z" style="fill:#263238"/><path d="m227.673 118.664-6.649 1.237 1.595 8.567-12.34 2.296-1.595-8.567-23.656 4.402-1.534-8.247 14.876-31.676 13.107-2.439-13.355 29.54 9.079-1.689-1.416-7.607 11.956-2.226 1.416 7.608 6.648-1.237 1.868 10.038zM227.663 104.377c-2.748-14.769 3.982-24.818 15.426-26.948 11.38-2.118 21.275 4.839 24.024 19.607 2.748 14.77-3.982 24.82-15.362 26.938-11.445 2.13-21.339-4.827-24.088-19.597zm26.724-4.972c-1.749-9.398-5.344-12.368-9.372-11.618-4.092.762-6.377 4.825-4.629 14.224 1.749 9.398 5.344 12.368 9.436 11.606 4.028-.75 6.314-4.814 4.565-14.212zM316.229 102.185l-6.649 1.237 1.594 8.567-12.338 2.296-1.595-8.567-23.656 4.402-1.535-8.247 14.876-31.676 13.108-2.438-13.355 29.539 9.079-1.689-1.416-7.607 11.955-2.226 1.416 7.608 6.649-1.237 1.867 10.038zM232.08 154.749l.406 2.183-12.741 2.371-3.268-17.558 12.391-2.306.406 2.182-9.883 1.839 1.003 5.393 8.805-1.638.396 2.132-8.804 1.638 1.055 5.668 10.234-1.904zM248.284 153.992l-4.791-4.688c-.347.09-.718.186-1.094.255l-4.34.808.994 5.343-2.508.467-3.268-17.558 6.848-1.274c4.565-.849 7.753.945 8.463 4.757.504 2.709-.537 4.926-2.831 6.262l5.261 5.12-2.734.508zm-2.203-11.424c-.467-2.508-2.413-3.626-5.624-3.028l-4.264.793 1.47 7.901 4.265-.794c3.21-.596 4.62-2.363 4.153-4.872zM266.514 150.599l-4.791-4.688c-.347.09-.718.186-1.095.256l-4.338.807.994 5.343-2.509.467-3.268-17.558 6.848-1.274c4.565-.85 7.754.944 8.463 4.757.505 2.709-.536 4.926-2.832 6.262l5.261 5.12-2.733.508zm-2.204-11.423c-.467-2.508-2.412-3.625-5.623-3.028l-4.264.793 1.471 7.901 4.264-.793c3.21-.597 4.619-2.365 4.152-4.873zM269.943 140.878c-.957-5.142 2.292-9.717 7.685-10.72 5.342-.994 10.015 2.081 10.976 7.248.962 5.167-2.292 9.717-7.634 10.711-5.393 1.003-10.071-2.096-11.027-7.239zm16.152-3.006c-.724-3.888-4.165-6.206-8.053-5.482-3.938.733-6.315 4.134-5.592 8.021.723 3.888 4.165 6.206 8.103 5.473 3.889-.723 6.265-4.124 5.542-8.012zM305.809 143.287l-4.791-4.688c-.347.09-.719.186-1.095.255l-4.339.808.994 5.343-2.509.467-3.268-17.558 6.848-1.274c4.565-.849 7.754.945 8.463 4.757.504 2.709-.536 4.926-2.831 6.262l5.261 5.12-2.733.508zm-2.205-11.423c-.467-2.508-2.413-3.626-5.623-3.028l-4.264.793 1.471 7.901 4.264-.794c3.21-.597 4.619-2.364 4.152-4.872z" style="fill:#263238"/><path d="M346.668 44.781a4.518 4.518 0 1 1-9.03.356 4.518 4.518 0 1 1 9.03-.356z" style="fill:#e0e0e0"/><path d="M346.668 44.781c-.05.004-.062-.4-.282-1.068a4.514 4.514 0 0 0-1.749-2.3c-.997-.701-2.596-1.046-4.099-.412-1.492.586-2.731 2.248-2.64 4.125.057 1.879 1.423 3.438 2.957 3.906 1.548.513 3.115.044 4.054-.734a4.503 4.503 0 0 0 1.562-2.43c.167-.683.147-1.087.197-1.087.018-.001.034.098.049.289.018.191.012.477-.048.839-.111.713-.503 1.791-1.526 2.672-.986.881-2.702 1.452-4.435.907-1.715-.49-3.269-2.231-3.332-4.342-.103-2.109 1.308-3.966 2.979-4.59 1.684-.679 3.439-.245 4.492.555 1.089.798 1.565 1.842 1.732 2.544.088.356.117.641.114.833.002.193-.007.292-.025.293z" style="fill:#263238"/><path d="M344.148 41.643c.13-.026.299 1.679-.618 3.503-.899 1.834-2.358 2.73-2.416 2.611-.102-.12 1.119-1.135 1.95-2.842.857-1.694.927-3.28 1.084-3.272z" style="fill:#263238"/><path d="M345.037 46.433c-.131.075-.728-1.117-2.087-1.814-1.353-.71-2.671-.511-2.685-.662-.014-.065.298-.209.845-.248a4.002 4.002 0 0 1 2.079.447 4.003 4.003 0 0 1 1.563 1.442c.284.471.345.809.285.835z" style="fill:#263238"/><path d="M133.098 108.239h14.549v6.579h-14.549z" style="fill:#e0e0e0" transform="rotate(-38.565 140.38 111.532)"/><path d="M148.111 109.565c-.037-.004-.465-.499-1.205-1.371l-3.044-3.656.265.03a1292.432 1292.432 0 0 1-11.33 9.126l.041-.365.001.001.002.003.004.005.008.011.017.021.034.042.067.085.135.169.268.337.532.668 1.042 1.311 1.98 2.499-.347-.039a708.68 708.68 0 0 1 8.179-6.371l2.423-1.845c.575-.43.9-.664.928-.661.029.003-.241.243-.765.688l-2.294 1.916a719.265 719.265 0 0 1-8.162 6.659l-.192.155-.156-.194-1.995-2.487-1.046-1.308-.533-.667-.269-.337-.135-.169-.068-.085-.034-.042-.017-.021-.008-.011-.004-.005-.002-.003-.001-.001c-.01.079.078-.694.042-.367 4.418-3.523 8.449-6.702 11.419-9.013l.151-.117.115.147a250.001 250.001 0 0 1 2.957 3.872c.678.907 1.034 1.395.997 1.39z" style="fill:#263238"/><path d="M130.082 120.029a6.071 6.071 0 0 0 8.532.962l-7.57-9.494a6.071 6.071 0 0 0-.962 8.532z" style="fill:#e0e0e0"/><path d="M130.082 120.029c-.018.015-.192-.162-.468-.534a5.828 5.828 0 0 1-.827-1.812 6.068 6.068 0 0 1-.008-3.067c.276-1.16.99-2.379 2.116-3.307l.185-.152.153.19 3.8 4.734 3.769 4.76.152.191-.189.146c-1.155.891-2.502 1.316-3.695 1.326a6.063 6.063 0 0 1-2.988-.691 5.804 5.804 0 0 1-1.582-1.21c-.303-.351-.436-.56-.418-.574.063-.07.631.807 2.127 1.524.742.34 1.723.619 2.845.551 1.117-.04 2.354-.463 3.411-1.3l-.038.337-3.801-4.735-3.768-4.759.337.038c-1.051.844-1.739 1.956-2.027 3.035a5.98 5.98 0 0 0-.097 2.896c.364 1.618 1.093 2.367 1.011 2.413z" style="fill:#263238"/><path d="M131.482 116.852c-.964 1.07-1.223 2.721-.632 4.035" style="fill:#e0e0e0"/><path d="M130.85 120.887c-.11.088-.734-.855-.524-2.149.196-1.296 1.079-2.003 1.156-1.886.112.101-.481.853-.642 1.967-.188 1.108.147 2.006.01 2.068zM138.625 117.502c-.129.076-.999-1.199-2.211-2.649-1.206-1.457-2.3-2.544-2.202-2.658.087-.106 1.364.83 2.602 2.325 1.244 1.489 1.932 2.916 1.811 2.982zM139.961 116.437c-.129.076-.999-1.198-2.211-2.649-1.206-1.457-2.3-2.544-2.202-2.658.087-.106 1.364.83 2.602 2.325 1.244 1.489 1.931 2.916 1.811 2.982zM141.297 115.372c-.129.076-.999-1.199-2.211-2.649-1.206-1.457-2.3-2.544-2.202-2.658.087-.106 1.364.83 2.602 2.325 1.243 1.489 1.931 2.916 1.811 2.982zM142.632 114.307c-.129.076-.999-1.198-2.211-2.649-1.206-1.457-2.301-2.544-2.202-2.658.087-.106 1.364.83 2.602 2.325 1.244 1.489 1.932 2.916 1.811 2.982zM143.968 113.242c-.129.076-.999-1.198-2.211-2.649-1.206-1.457-2.3-2.544-2.202-2.658.087-.106 1.364.83 2.602 2.325 1.244 1.489 1.931 2.916 1.811 2.982zM145.304 112.177c-.129.076-.999-1.199-2.211-2.649-1.206-1.457-2.3-2.544-2.202-2.658.087-.106 1.364.83 2.602 2.325 1.243 1.489 1.931 2.916 1.811 2.982zM146.639 111.112c-.129.076-.999-1.199-2.211-2.649-1.206-1.457-2.301-2.544-2.202-2.658.087-.106 1.364.83 2.602 2.325 1.244 1.489 1.931 2.916 1.811 2.982zM154.5 82.028c-.05.004-.061-.405-.284-1.082a4.572 4.572 0 0 0-1.771-2.331c-1.011-.711-2.631-1.06-4.154-.418-1.513.594-2.769 2.278-2.676 4.181.057 1.905 1.443 3.485 2.997 3.959 1.569.52 3.157.044 4.109-.744a4.57 4.57 0 0 0 1.582-2.463c.168-.693.147-1.102.197-1.102.018-.001.034.099.049.293.018.193.012.483-.049.85-.113.722-.51 1.813-1.546 2.705-.999.891-2.735 1.469-4.489.918-1.736-.497-3.309-2.258-3.372-4.396-.104-2.135 1.324-4.014 3.016-4.646 1.705-.688 3.481-.249 4.547.561 1.103.807 1.585 1.864 1.754 2.575.09.36.119.649.116.843 0 .196-.008.297-.026.297zM124.804 93.08c-.035.01-.178-.408-.409-1.175a13.753 13.753 0 0 1-.369-1.412c-.12-.556-.283-1.186-.379-1.897-.252-1.412-.415-3.118-.465-5.016-.02-1.898.091-3.989.418-6.158a38.643 38.643 0 0 1 1.476-5.994c.625-1.793 1.3-3.368 1.969-4.637.308-.648.655-1.198.938-1.691.279-.496.55-.905.781-1.232.454-.66.718-1.014.747-.994.085.055-.911 1.519-2.137 4.081-.621 1.277-1.252 2.847-1.844 4.625a41.737 41.737 0 0 0-1.416 5.924 41.697 41.697 0 0 0-.453 6.072c.023 1.874.146 3.561.349 4.966.389 2.813.891 4.512.794 4.538zM388.494 137.037c.035-.01.178.408.409 1.175.121.382.255.854.369 1.412.12.556.283 1.186.379 1.897.252 1.413.415 3.118.465 5.016a38.634 38.634 0 0 1-.419 6.158 38.76 38.76 0 0 1-1.475 5.994c-.625 1.793-1.3 3.368-1.969 4.637-.308.648-.655 1.198-.938 1.691-.279.496-.55.905-.781 1.232-.454.66-.717 1.014-.747.994-.085-.055.911-1.519 2.137-4.081.621-1.277 1.252-2.847 1.844-4.625a41.737 41.737 0 0 0 1.416-5.924c.323-2.139.447-4.198.453-6.072-.023-1.874-.146-3.561-.349-4.966-.389-2.813-.891-4.512-.794-4.538zM394.994 138.758c.035-.01.178.408.409 1.175.121.382.254.854.369 1.412.12.556.283 1.186.379 1.897.252 1.412.415 3.118.465 5.016a38.745 38.745 0 0 1-.418 6.158 38.76 38.76 0 0 1-1.475 5.994c-.625 1.793-1.3 3.368-1.969 4.637-.308.648-.655 1.198-.938 1.691-.279.496-.55.905-.781 1.232-.454.66-.718 1.015-.747.994-.085-.055.911-1.519 2.137-4.081.621-1.277 1.252-2.847 1.844-4.625a41.755 41.755 0 0 0 1.416-5.923c.322-2.139.447-4.198.453-6.072-.023-1.874-.146-3.561-.349-4.966-.39-2.815-.892-4.513-.795-4.539z" style="fill:#263238"/><path d="M177.532 217.206a42.008 42.008 0 0 0 8.347-25.197c0-23.306-18.893-42.199-42.199-42.199s-42.199 18.893-42.199 42.199 18.893 42.199 42.199 42.199a41.987 41.987 0 0 0 23.208-6.96l14.523 6.432-3.879-16.474z" style="fill:#fafafa"/><path d="M130.919 189.524c.087-1.584.762-3.102 1.747-4.346.965-1.218 2.26-2.211 3.757-2.63a6.15 6.15 0 0 1 4.773.646 6.113 6.113 0 0 1 2.057 2.066 6.107 6.107 0 0 1 1.681-2.051 6.149 6.149 0 0 1 4.663-1.205c1.535.24 2.939 1.073 4.041 2.168 1.125 1.119 1.975 2.547 2.248 4.109.342 1.957.089 4.137-.832 5.898-.973 1.859-2.631 3.412-4.361 4.599-2.909 1.996-6.746 4.507-6.746 4.507s-3.506-2.312-6.631-3.951c-1.858-.975-3.688-2.321-4.874-4.052-1.123-1.639-1.631-3.774-1.523-5.758z" style="fill:#e8505b"/><path d="M143.677 149.826c0-.016-.248-.021-.734-.012l-2.156.061c-.474.022-1.006.022-1.59.071l-1.902.267-2.22.319-2.48.615c-3.484.896-7.706 2.427-12.021 5.241-4.313 2.768-8.795 6.727-12.432 12.108-3.569 5.387-6.324 12.165-7.053 19.777-.071 1.905-.301 3.843-.117 5.813.069.983.049 1.982.192 2.973l.451 2.994c.811 3.971 1.993 8.04 4.04 11.829a45.539 45.539 0 0 0 7.726 10.631 44.67 44.67 0 0 0 11.131 7.997c4.16 2.125 8.77 3.593 13.568 4.165 1.188.235 2.405.234 3.619.308 1.214.079 2.434.124 3.658.066a43.423 43.423 0 0 0 7.327-.926c5.27-1.122 10.231-3.268 14.588-6.139l-.443.045 14.859 5.963.88.353-.251-.914-4.368-15.885-.075.392c4.17-5.542 6.828-11.869 7.929-18.152.552-3.139.786-6.272.578-9.3-.064-1.517-.137-3.013-.422-4.467l-.337-2.174c-.133-.715-.35-1.407-.52-2.104-2.871-11.182-9.758-19.441-16.578-24.168-3.415-2.405-6.782-4.13-9.866-5.205l-2.222-.795-2.11-.536-1.93-.478c-.619-.119-1.217-.182-1.776-.269-1.124-.143-2.11-.336-2.975-.379l-2.184-.074-1.334-.029c-.298 0-.45.005-.45.018 0 .013.152.034.451.062l1.328.105 2.169.146c.858.067 1.836.284 2.948.448 4.373.802 10.929 2.546 17.626 7.442 6.688 4.729 13.4 12.909 16.161 23.901.163.685.374 1.365.5 2.068l.32 2.135c.273 1.428.337 2.897.393 4.386.193 2.971-.05 6.043-.602 9.117-1.102 6.153-3.724 12.34-7.82 17.757l-.134.177.059.215 4.336 15.894.629-.56-14.852-5.981-.233-.094-.211.139c-4.263 2.804-9.112 4.899-14.262 5.995a42.61 42.61 0 0 1-7.163.906c-1.197.057-2.39.013-3.577-.065-1.186-.072-2.377-.068-3.538-.299-4.692-.554-9.198-1.985-13.269-4.058a43.825 43.825 0 0 1-10.903-7.803 44.774 44.774 0 0 1-7.588-10.389c-2.016-3.704-3.184-7.686-3.995-11.575l-.453-2.933c-.145-.971-.128-1.952-.2-2.915-.19-1.932.03-3.834.09-5.704.682-7.473 3.347-14.145 6.823-19.471 3.543-5.319 7.927-9.258 12.158-12.034 4.233-2.822 8.388-4.388 11.826-5.331l2.449-.652 2.196-.36 1.884-.311c.578-.064 1.107-.079 1.577-.117l2.145-.156c.484-.039.732-.068.732-.085z" style="fill:#263238"/></svg>